Coordinates
version=1
nRows=12
nColumns=24
inDegrees=yes

Units are S.I. units (second, meters, Newtons, ...)
Angles are in degrees.

endheader
time	pelvis_tilt	pelvis_list	pelvis_rotation	pelvis_tx	pelvis_ty	pelvis_tz	hip_flexion_r	hip_adduction_r	hip_rotation_r	knee_angle_r	ankle_angle_r	subtalar_angle_r	mtp_angle_r	hip_flexion_l	hip_adduction_l	hip_rotation_l	knee_angle_l	ankle_angle_l	subtalar_angle_l	mtp_angle_l	lumbar_extension	lumbar_bending	lumbar_rotation
      1.37500000	      1.26322867	      4.30645176	     -1.21385271	      0.22607632	      1.06794060	      0.32291317	     14.10668951	     -5.79634449	     -1.17901196	    -66.74786994	     -5.00607247	    -13.19194782	     11.00481128	      6.14506263	      9.26148190	     -1.06004504	     -6.94191138	     -2.04701764	     -8.21866185	      2.31598285	      1.79252854	     -1.63757508	      1.24742392
      1.37916667	      1.28255281	      4.29684087	     -1.17002077	      0.23108557	      1.06850865	      0.32280622	     14.68419494	     -5.72953549	     -1.01896392	    -66.70695682	     -4.35281417	    -13.69573090	     10.91025919	      5.77142685	      9.26487271	     -0.99222485	     -6.85142070	     -1.85636981	     -8.13646339	      2.30764757	      1.73686292	     -1.62302150	      1.17159790
      1.38333333	      1.29055763	      4.28805938	     -1.11826814	      0.23609233	      1.06905479	      0.32270117	     15.25884182	     -5.65998088	     -0.85990366	    -66.59934325	     -3.71529027	    -14.15974543	     10.81283180	      5.40850932	      9.26882432	     -0.92527308	     -6.76217345	     -1.66532789	     -8.05573508	      2.29826926	      1.68693773	     -1.61854337	      1.09519438
      1.38750000	      1.29172758	      4.25785036	     -1.03219217	      0.24111115	      1.06960764	      0.32265622	     15.81048135	     -5.56083488	     -0.73782411	    -66.41898027	     -3.06527411	    -14.60109051	     10.67014129	      5.05894379	      9.24197910	     -0.90196803	     -6.69546399	     -1.44992535	     -7.96487128	      2.28131071	      1.64754131	     -1.64936297	      1.00249346
      1.39166667	      1.30298724	      4.26921381	     -1.01516766	      0.24608481	      1.07011902	      0.32251220	     16.37064754	     -5.51308603	     -0.54848380	    -66.21044437	     -2.55370393	    -14.90980243	     10.57626532	      4.67556598	      9.27640398	     -0.77746067	     -6.55780206	     -1.29831317	     -7.87778446	      2.27041252	      1.59880618	     -1.60338150	      0.92228733
      1.39583333	      1.30366296	      4.23097588	     -0.92928626	      0.25108462	      1.07065104	      0.32250000	     16.89504420	     -5.39898871	     -0.43043710	    -65.91892120	     -1.91049368	    -15.23578718	     10.43035604	      4.31754937	      9.23918930	     -0.73838009	     -6.46999997	     -1.09100073	     -7.82120809	      2.24957478	      1.54467478	     -1.62834141	      0.82690742
      1.40000000	      1.30703933	      4.22141868	     -0.88162829	      0.25607556	      1.07114710	      0.32243797	     17.41788218	     -5.31944439	     -0.27326794	    -65.58654604	     -1.36141565	    -15.46643569	     10.29177082	      3.93982931	      9.24234813	     -0.63891564	     -6.33939668	     -0.92177063	     -7.76056326	      2.22810351	      1.49663613	     -1.62196745	      0.73230566
      1.40416667	      1.31854355	      4.22638438	     -0.84977703	      0.26103741	      1.07162263	      0.32238971	     17.92703561	     -5.25077821	     -0.10126621	    -65.20622419	     -0.87570363	    -15.64608500	     10.18676287	      3.54611437	      9.26323541	     -0.50675141	     -6.18257599	     -0.78223231	     -7.71168825	      2.21105728	      1.45740561	     -1.59924843	      0.65185585
      1.40833333	      1.32400798	      4.21379820	     -0.79979374	      0.26600398	      1.07208939	      0.32236974	     18.41790856	     -5.16180243	      0.04772216	    -64.76221846	     -0.36791817	    -15.79495139	     10.08566616	      3.16005000	      9.26017247	     -0.39946057	     -6.03219909	     -0.63378414	     -7.69305373	      2.19314230	      1.40918922	     -1.59981165	      0.57282838
      1.41250000	      1.32592232	      4.20776841	     -0.74455599	      0.27096349	      1.07252466	      0.32237018	     18.89686525	     -5.07774313	      0.19198539	    -64.26717666	      0.12756700	    -15.89404472	      9.98289713	      2.77380449	      9.26433923	     -0.27975094	     -5.87299324	     -0.48963861	     -7.68160649	      2.17329432	      1.36662332	     -1.60865113	      0.48968572
      1.41666667	      1.32547121	      4.20295222	     -0.68446506	      0.27592435	      1.07293194	      0.32238134	     19.36150491	     -4.99477456	      0.33002328	    -63.72319041	      0.61109131	    -15.93654423	      9.86888972	      2.38613689	      9.26931188	     -0.15773546	     -5.70904054	     -0.34806328	     -7.68806144	      2.14893559	      1.32251141	     -1.62368359	      0.39557762
      1.42083333	      1.32727766	      4.20658784	     -0.63259315	      0.28087713	      1.07331839	      0.32241220	     19.81150824	     -4.91798656	      0.47385102	    -63.12686259	      1.03453150	    -15.94029204	      9.76405637	      1.98915534	      9.28355796	     -0.02231137	     -5.52531374	     -0.22815109	     -7.69905269	      2.12471074	      1.28318073	     -1.64931513	      0.30610175
